<?xml version="1.0" encoding="UTF-8" standalone="no"?><!DOCTYPE svg PUBLIC "-//W3C//DTD SVG 1.1//EN" "http://www.w3.org/Graphics/SVG/1.1/DTD/svg11.dtd"><svg width="100%" height="100%" viewBox="0 0 3876 1501" version="1.1" xmlns="http://www.w3.org/2000/svg" xmlns:xlink="http://www.w3.org/1999/xlink" xml:space="preserve" xmlns:serif="http://www.serif.com/" style="fill-rule:evenodd;clip-rule:evenodd;stroke-linejoin:round;stroke-miterlimit:2;"><path d="M3332.86,77.921l-14.172,47.791l-198.306,0c-42.49,0 -63.748,-17.715 -63.748,-47.791c-0,-8.871 -0,-15.957 3.543,-30.13l8.844,-47.791l203.633,-0c42.491,-0 63.749,17.716 63.749,47.791c0,8.872 0,17.716 -3.543,30.13Zm-370.078,718.871c-42.49,-0 -65.507,-17.716 -65.507,-47.819c0,-3.543 0,-17.688 3.543,-30.103l104.454,-442.643c3.543,-26.56 8.871,-42.491 8.871,-51.362c0,-8.844 0,-17.716 -5.328,-21.231c-7.059,-5.329 -17.688,-8.872 -30.103,-8.872l8.872,-35.404l244.338,0c44.276,0 65.507,17.716 65.507,47.791c-0,8.872 -0,17.716 -3.543,30.131l-104.454,446.186c-3.543,26.56 -8.871,44.276 -8.871,47.819c-0,14.145 5.328,17.688 8.871,23.017c5.301,3.543 14.173,7.086 26.56,12.387l-8.844,30.103l-244.366,-0Zm-478.075,-555.997l17.688,-81.437l460.387,0l-35.404,138.1c0,8.871 -3.543,17.715 -12.387,30.103l-216.048,292.157l83.249,-0c24.775,-0 42.49,-3.543 51.334,-8.844c12.388,-8.845 24.802,-21.259 33.646,-37.189l30.103,-0l-35.431,157.6c-3.516,17.688 -7.059,30.103 -15.93,38.947c-5.301,8.844 -12.388,17.688 -26.56,21.231c-7.086,0 -24.774,5.329 -46.033,5.329l-339.976,-0c-38.947,-0 -60.205,-17.716 -60.205,-47.819c-0,-8.844 5.328,-30.103 8.871,-60.206l17.688,-77.893l231.952,-292.157l-86.766,-0c-42.49,-0 -63.721,-17.716 -63.721,-42.49c-0,-14.173 3.543,-21.259 3.543,-35.432Zm-433.827,478.075l76.136,-327.56c5.328,-15.931 8.871,-30.103 8.871,-33.646c0,-8.844 -3.543,-17.716 -8.871,-21.259c-3.516,-5.301 -12.387,-8.844 -15.93,-8.844c-12.388,-0 -17.689,3.543 -26.56,12.387c-3.543,3.543 -8.844,21.259 -12.387,38.974l-69.05,304.544c-8.844,23.017 -12.387,40.733 -12.387,47.819c-0,8.844 3.543,17.688 7.058,23.017c5.329,3.543 14.173,7.086 28.345,12.387l-10.629,30.103l-240.795,-0c-42.518,-0 -63.749,-17.716 -63.749,-47.819c-0,-8.844 3.543,-17.688 3.543,-30.103l102.696,-442.643c5.301,-26.56 8.844,-42.491 8.844,-51.362c-0,-8.844 -3.543,-17.716 -8.844,-21.231c-3.543,-5.329 -12.415,-5.329 -24.802,-8.872l8.871,-35.404l246.097,0c37.189,0 58.448,17.716 58.448,47.791c-0,8.872 -0,26.587 -7.087,51.362l54.905,-67.292c8.844,-14.145 15.93,-23.017 21.231,-26.56c8.845,0 23.017,-5.301 38.947,-5.301l111.568,0c42.49,0 74.35,8.844 90.281,17.716c17.715,8.844 26.587,26.56 26.587,56.662c-0,7.059 -3.543,28.318 -14.173,63.722l-90.308,386.008c-3.543,26.56 -7.086,44.276 -7.086,47.819c-0,8.844 -0,17.688 7.086,23.017c5.301,3.543 14.172,7.086 26.56,12.387l-8.844,30.103l-244.366,-0c-42.49,-0 -63.749,-17.716 -63.749,-47.819c-0,-8.844 3.543,-17.688 3.543,-30.103Zm-623.261,-327.56l60.206,-0l8.871,-38.947c3.516,-8.872 3.516,-12.415 3.516,-15.958c0,-17.688 -8.844,-26.532 -26.56,-26.532c-12.387,-0 -17.688,5.3 -21.231,8.844c-8.872,3.543 -12.415,17.688 -17.716,33.646l-7.086,38.947Zm270.926,177.074l-30.103,123.927c-8.872,31.888 -23.017,53.119 -35.431,69.077c-15.931,14.145 -33.646,26.532 -60.179,30.075c-21.258,0 -54.904,5.329 -99.18,5.329l-150.487,-0c-42.517,-0 -76.136,-0 -106.238,-5.329c-26.56,0 -47.819,-3.543 -60.206,-12.387c-44.275,-21.231 -65.507,-54.877 -65.507,-104.454c0,-24.802 5.301,-63.748 17.688,-115.11c12.415,-63.749 26.56,-115.083 35.404,-145.186c15.958,-65.506 38.975,-113.325 60.206,-146.971c21.259,-33.619 49.604,-60.206 88.551,-76.136c40.732,-23.017 95.609,-31.861 162.901,-31.861l92.066,0c37.19,0 69.05,5.301 84.981,5.301c17.715,0 35.431,3.543 53.119,12.415c24.802,8.844 42.49,21.231 54.905,42.49c17.688,21.231 21.231,47.791 21.231,77.894c0,21.259 0,46.033 -8.844,77.921c-7.086,30.103 -17.716,51.334 -21.259,72.593c-8.844,17.716 -17.688,30.103 -24.774,33.646c-8.844,8.844 -21.259,14.145 -35.404,17.688c-17.716,3.543 -33.646,3.543 -65.534,3.543l-205.392,0l-8.844,30.103l0,31.888c0,30.103 30.103,46.034 86.766,46.034l63.749,-0c5.3,-0 17.688,-3.544 47.791,-3.544c21.258,-5.301 38.946,-5.301 47.818,-8.844c7.086,-3.543 15.93,-17.715 30.103,-30.102l30.103,-0Zm-881.799,228.408c-38.947,-0 -60.206,-17.716 -60.206,-47.819c-0,-3.543 -0,-17.688 3.543,-30.103l81.464,-343.491c2.033,-8.624 1.813,-14.172 1.813,-17.715c0,-17.716 -8.899,-28.263 -26.614,-30.103c-22.605,-2.335 -29.06,31.86 -33.646,51.361c-25.462,104.344 -62.211,248.184 -83.223,352.363c0,8.844 5.329,17.688 8.872,23.017c3.543,3.543 12.387,7.086 26.56,12.387l-8.872,30.103l-244.338,-0c-44.276,-0 -65.507,-17.716 -65.507,-47.819c-0,-3.543 2.884,-17.688 5.301,-30.103l76.136,-327.56c4.642,-13.898 12.469,-44.468 -0,-54.905c-4.889,-4.093 -12.387,-8.844 -15.93,-8.844c-14.173,-0 -17.716,3.543 -26.56,12.387c-3.543,3.543 -8.844,21.259 -12.387,38.974c-22.99,101.378 -64.958,253.705 -83.223,352.363c0,8.844 5.301,17.688 8.844,23.017c5.329,3.543 14.173,7.086 26.56,12.387l-8.844,30.103l-240.823,-0c-42.49,-0 -63.721,-17.716 -63.721,-47.819c-0,-8.844 3.543,-17.688 3.543,-30.103l102.696,-442.643c5.301,-26.56 8.844,-42.491 8.844,-51.362c-0,-8.844 -3.543,-17.716 -8.844,-21.231c-3.543,-5.329 -12.415,-5.329 -24.802,-8.872l8.844,-35.404l244.366,0c38.947,0 60.206,17.716 60.206,47.791c-0,8.872 -0,26.587 -8.872,51.362l56.663,-67.292c21.972,-26.093 31.174,-31.861 67.566,-31.861l104.207,0c42.49,0 74.158,9.229 90.281,17.716c17.523,9.201 26.559,26.56 26.559,56.662c0,0 -0.741,7.059 -5.301,24.775l47.791,-67.292c8.872,-10.629 15.958,-19.474 24.802,-23.017c8.844,-3.543 26.56,-8.844 44.276,-8.844l106.239,0c44.247,0 72.592,8.844 90.308,17.716c17.688,8.844 26.532,26.56 26.532,51.334c0,17.716 -3.543,38.947 -12.387,69.05l-92.066,386.008c-3.543,23.017 -7.086,40.733 -7.086,47.819c-0,8.844 3.543,17.688 7.086,23.017c5.301,3.543 14.172,7.086 26.559,12.387l-8.844,30.103l-244.365,-0Z" style="fill:#12120d;"/><path d="M3523.38,1500.7c-43.369,-0 -64.765,-17.441 -64.765,-47.297c-0,-4.504 1.703,-18.017 4.504,-29.855l42.793,-176.278c1.703,-8.432 -0,-17.468 -0,-21.973c-0,-8.432 -0.55,-17.441 -8.432,-25.323c-3.956,-3.955 -12.964,-9.009 -21.397,-9.009l-17.468,-0l-42.792,193.718c-5.631,26.478 -9.009,42.82 -9.009,51.252c0,9.009 0,18.045 4.504,21.973c3.928,3.955 12.937,8.459 25.901,8.459l-4.504,34.333l-240.494,-0c-43.369,-0 -64.765,-17.441 -64.765,-47.297c0,-8.459 1.703,-17.468 4.505,-29.855l137.413,-602.057c5.658,-25.351 8.459,-43.369 8.459,-51.801c0,-8.46 0.577,-18.046 -3.955,-21.424c-7.306,-5.054 -17.441,-4.504 -30.405,-8.432l9.009,-34.36l240.493,-0c42.765,-0 64.765,16.892 64.765,47.297c0,8.459 -1.703,17.468 -4.504,29.855l-64.765,270.898l94.62,-99.125c18.595,-19.693 30.405,-34.36 30.405,-42.792c0,-8.46 -8.432,-16.892 -25.9,-16.892l4.504,-30.405l197.674,0c25.9,0 38.864,8.432 38.864,21.396c0,9.009 -7.306,19.144 -17.441,30.405l-146.449,158.809l21.973,0c34.333,0 59.684,5.659 77.152,21.424c20.27,18.018 30.405,43.369 30.405,73.197c0,17.469 -5.63,43.369 -12.936,77.729l-30.433,141.918c-4.504,21.973 -8.432,38.315 -8.432,46.747c0,9.009 0.55,18.045 4.505,21.973c3.927,3.955 12.387,8.459 25.351,12.964l-8.46,29.828l-240.493,0Zm-378.455,-236.538l-34.36,141.945c-3.955,17.441 -10.135,34.36 -17.469,47.296c-4.504,7.883 -18.018,20.27 -34.36,29.856c-13.513,7.306 -26.45,11.261 -38.865,12.937c-16.891,2.279 -38.287,4.504 -59.683,4.504l-176.278,0c-47.324,0 -78.306,-4.504 -90.693,-8.432c-25.9,-8.46 -41.693,-22.522 -51.252,-38.865c-11.261,-18.017 -17.468,-42.792 -17.468,-68.72c-0,-17.441 1.126,-39.414 4.504,-64.765c4.505,-30.405 13.541,-64.188 25.352,-111.512c12.964,-51.252 25.351,-99.675 34.909,-133.486c11.289,-38.287 24.802,-73.773 34.36,-94.62c11.838,-25.901 23.099,-45.045 38.315,-60.261c15.217,-14.639 29.856,-27.027 47.324,-34.333c12.388,-5.081 34.91,-11.261 56.306,-12.964c25.351,-1.675 55.756,-8.432 94.621,-8.432l244.997,0l-25.928,112.062c-5.603,24.775 -13.513,42.792 -25.9,51.252c-12.937,8.459 -29.828,17.468 -51.801,17.468l-51.252,0c-30.433,0 -51.252,5.054 -64.765,16.892c-11.838,10.135 -22.55,30.405 -29.856,64.765l-21.396,98.548c-1.703,9.586 -4.504,17.469 -4.504,25.928c-0,17.441 5.63,29.279 17.441,38.837c9.009,7.334 25.351,12.964 47.324,12.964l47.296,0c16.892,0 29.856,-0.549 42.82,-8.432c7.883,-4.532 16.892,-12.964 25.901,-30.432l34.36,-0Zm-528.86,-399.852c42.792,0 64.188,17.441 64.188,47.297c0,8.432 -6.757,20.847 -8.432,30.405l-99.125,442.671c-5.631,26.478 -8.46,42.82 -8.46,51.252c0,9.009 0.577,18.045 4.505,21.973c3.955,3.955 12.964,8.459 25.928,8.459l-4.532,34.333l-244.97,0c-42.82,0 -64.793,-17.441 -64.793,-47.297c0,-8.459 4.532,-25.9 9.036,-51.828l-51.828,69.297c-8.432,11.81 -18.567,20.27 -25.9,25.324c-4.505,2.829 -16.892,4.504 -34.361,4.504l-111.512,0c-30.405,0 -52.378,-2.802 -69.269,-4.504c-16.892,-1.676 -27.604,-14.063 -34.361,-25.324c-6.18,-10.135 -12.387,-21.973 -12.387,-38.865c0,-12.964 4.505,-34.36 12.387,-68.72l90.666,-382.987c5.631,-25.324 8.46,-42.792 8.46,-51.225c-0,-9.036 -4.505,-17.468 -8.46,-21.423c-3.928,-3.928 -12.937,-9.009 -25.901,-9.009l8.46,-34.333l241.043,0c42.819,0 64.215,17.441 64.215,47.297c0,8.432 -1.126,17.468 -3.955,30.405l-73.224,330.609c-3.928,18.568 -8.433,30.405 -8.433,34.361c0,9.008 4.505,12.936 8.433,17.441c3.955,3.955 12.964,8.459 16.891,8.459c9.036,0 15.216,-6.207 21.973,-12.964c6.207,-6.18 13.541,-21.396 16.919,-38.288l68.693,-301.33c5.631,-25.324 8.459,-42.792 8.459,-51.225c0,-9.036 0.55,-18.594 -3.955,-21.423c-7.882,-5.054 -17.468,-9.009 -30.405,-9.009l9.009,-34.333l244.998,0Zm-1579.8,147.548c-0,0 -947.306,-0.576 -955.738,0c-49,2.802 -80.531,0 -80.531,-46.747l39.414,-101.954l1226.64,1.153c36.612,0 60.261,17.441 60.261,47.297c-0,8.432 -0,25.901 -9.009,51.801l56.333,-68.693c9.585,-11.837 15.765,-24.225 21.396,-25.9c7.883,-2.28 21.423,-4.505 38.315,-4.505l112.062,0c42.819,0 73.224,8.982 90.116,17.441c16.892,8.46 25.901,25.901 25.901,55.757c-0,-0 -4.505,8.459 -4.505,25.9l47.324,-68.693c6.757,-10.135 17.441,-18.017 25.901,-21.973c7.882,-3.927 25.9,-8.432 43.369,-8.432l107.008,0c43.369,0 73.197,8.982 90.665,17.441c16.343,8.46 25.352,25.901 25.352,51.252c-0,17.469 -5.631,38.865 -12.388,68.72l-90.693,387.465c-4.504,20.846 -8.432,38.315 -8.432,46.747c0,9.009 4.504,18.045 8.432,21.973c3.955,3.955 12.964,8.459 25.928,12.964l-8.459,29.828l-244.998,0c-38.865,0 -60.261,-17.441 -60.261,-47.297c0,-4.504 1.126,-17.468 3.955,-29.855l81.657,-344.123c1.703,-7.883 0,-12.937 0,-17.441c0,-16.892 -8.432,-29.856 -25.351,-29.856c-9.009,0 -17.441,5.082 -21.396,12.964c-3.955,8.432 -9.009,21.973 -12.937,38.865l-73.224,305.231c-5.631,24.802 -8.46,42.819 -8.46,46.747c0,9.009 4.505,18.045 8.46,21.973c3.927,3.955 12.936,8.459 25.9,12.964l-9.009,29.828l-244.997,0c-42.792,0 -64.216,-17.441 -64.216,-47.297c0,-4.504 1.154,-18.017 3.955,-29.855l77.729,-327.204c3.928,-16.342 8.432,-29.856 8.432,-34.36c0,-8.46 -4.504,-17.468 -8.432,-21.396c-3.955,-3.955 -12.964,-8.46 -17.468,-8.46c-12.964,0 -17.469,4.505 -25.901,12.964c-3.955,3.379 -8.459,21.973 -12.387,38.865l-69.27,305.231c-5.081,21.973 -12.964,38.315 -12.964,46.747c0,9.009 5.082,18.045 9.009,21.973c3.955,3.955 12.964,8.459 25.901,12.964l-9.009,29.828l-240.466,0c-43.369,0 -64.792,-17.441 -64.792,-47.297c-0,-8.459 2.252,-18.594 4.504,-29.855l101.378,-411.69Z" style="fill:#e7000d;"/><path d="M3811.11,782.187l5.933,-0c6.921,-0 10.217,2.637 11.206,8.24c1.648,6.591 2.637,11.206 4.285,13.183l13.183,0c-0.988,-1.977 -2.307,-4.944 -3.955,-13.183c-1.648,-7.251 -4.285,-11.536 -9.558,-13.184l-0,-0.659c6.262,-1.978 11.206,-6.263 11.206,-12.854c0,-5.274 -2.307,-9.229 -5.603,-11.536c-3.625,-2.637 -8.24,-4.285 -18.457,-4.285c-8.899,0 -15.821,0.989 -20.765,1.648l0,54.053l12.525,0l0,-21.423Zm0.33,-24.39c1.318,-0.33 3.625,-0.659 6.921,-0.659c7.91,-0 11.536,3.296 11.536,8.24c-0,5.603 -5.603,7.91 -12.525,7.91l-5.932,-0l-0,-15.491Zm8.569,-36.255c-31.311,-0 -56.031,23.73 -56.031,54.053c0,30.322 24.72,54.383 55.701,54.383c30.982,-0 55.372,-24.061 55.372,-54.383c0,-30.323 -24.39,-54.053 -55.042,-54.053Zm-0.659,10.876c24.06,0 41.858,19.446 41.858,43.506c0,23.731 -17.798,43.177 -41.199,42.848c-24.06,-0 -42.188,-19.117 -42.188,-43.177c0,-23.731 18.128,-43.177 41.529,-43.177Z" style="fill:#e50211;fill-rule:nonzero;"/></svg>